# Blender 3.5.0
# www.blender.org
mtllib ground.mtl
o Cube
v -1.000000 -1.000000 1.000000
v -1.419412 0.557150 1.464386
v -1.000000 -1.000000 -1.000000
v -1.000000 0.649974 -1.000000
v 1.000000 -1.000000 1.000000
v 1.000000 0.305844 1.000000
v 1.000000 -1.000000 -1.000000
v 1.000000 -0.173372 -1.000000
v 0.000000 -1.000000 -1.000000
v 0.000000 0.010249 -1.000000
v 0.000000 -1.000000 1.000000
v 0.000000 0.523482 1.000000
v -1.000000 -1.000000 0.000000
v -1.000000 0.673611 0.000000
v 1.000000 -1.000000 0.000000
v 1.000000 0.156692 0.000000
v 0.000000 1.000000 0.000000
v 0.000000 -1.000000 0.000000
v 2.309968 -1.000000 1.000000
v 2.309968 -0.323727 1.000000
v 2.309968 -1.000000 -1.000000
v 2.309968 -0.288708 -1.000000
v 2.309968 -1.000000 0.000000
v 2.309968 -0.099975 0.000000
v -1.000000 -1.000000 -3.032428
v -1.000000 0.214791 -3.032428
v 1.000000 -1.000000 -3.737083
v 1.000000 -0.173372 -3.737083
v 0.000000 -1.000000 -3.817953
v 0.000000 0.010249 -3.817953
v 2.309968 -1.000000 -2.811387
v 2.309968 -0.402000 -2.811387
v -2.161351 -1.000000 1.000000
v -2.161351 -0.335540 1.000000
v -2.161351 -1.000000 -1.000000
v -2.161351 -0.120522 -1.000000
v -2.161351 -1.000000 0.000000
v -2.161351 -0.247158 0.000000
v -2.161351 -1.000000 -3.032428
v -2.161351 -0.180123 -3.032428
v -0.996492 -1.092880 2.120203
v -1.415904 0.182466 2.116323
v 1.003508 -1.092880 2.120203
v 1.003508 -0.283733 2.120203
v 0.003508 -1.092880 2.120203
v 0.003508 0.114840 2.120203
v 2.313476 -1.092880 2.120203
v 2.313476 -0.416607 2.120203
v -2.157843 -1.092880 2.120203
v -2.157843 -0.604081 2.120203
vn -0.0000 -1.0000 -0.0000
vn 0.1806 0.9836 -0.0000
vn 0.2710 0.8796 0.3910
vn 1.0000 -0.0000 -0.0031
vn -0.0752 0.9723 0.2212
vn 0.4638 0.8743 0.1431
vn 0.0977 0.9104 0.4020
vn 0.3596 0.9294 -0.0834
vn 0.3939 0.7672 -0.5063
vn 0.1384 0.8834 -0.4476
vn -0.0000 -0.0000 -1.0000
vn 1.0000 -0.0000 -0.0000
vn 0.1362 0.9589 -0.2488
vn 0.3202 0.9467 0.0353
vn 0.0806 -0.0000 -0.9967
vn -0.6177 -0.0000 -0.7864
vn 0.5771 -0.0000 -0.8167
vn -0.4458 0.8886 -0.1082
vn 0.1387 0.9900 -0.0247
vn -1.0000 -0.0000 -0.0000
vn -0.0000 -0.9966 -0.0826
vn -0.6816 0.7296 -0.0554
vn -0.5881 0.8077 0.0416
vn -0.0000 -0.0000 1.0000
vn -0.0016 0.0013 1.0000
vn 0.0010 0.0024 1.0000
vn -0.7600 0.6100 0.2244
vn 0.2683 0.9218 0.2799
vn -1.0000 -0.0000 0.0031
vt 0.125000 0.750000
vt 0.875000 0.750000
vt 0.125000 0.500000
vt 0.875000 0.500000
vt 0.375000 0.750000
vt 0.625000 0.750000
vt 0.375000 0.500000
vt 0.625000 0.500000
vt 0.250000 0.500000
vt 0.750000 0.500000
vt 0.250000 0.750000
vt 0.750000 0.750000
vt 0.125000 0.625000
vt 0.875000 0.625000
vt 0.375000 0.625000
vt 0.625000 0.625000
vt 0.750000 0.625000
vt 0.250000 0.625000
vt 0.375000 0.750000
vt 0.625000 0.750000
vt 0.375000 0.500000
vt 0.625000 0.500000
vt 0.375000 0.625000
vt 0.625000 0.625000
vt 0.375000 0.250000
vt 0.125000 0.500000
vt 0.625000 0.250000
vt 0.875000 0.500000
vt 0.375000 0.500000
vt 0.625000 0.500000
vt 0.375000 0.375000
vt 0.250000 0.500000
vt 0.750000 0.500000
vt 0.625000 0.375000
vt 0.375000 0.500000
vt 0.625000 0.500000
vt 0.125000 0.750000
vt 0.375000 0.000000
vt 0.875000 0.750000
vt 0.625000 0.000000
vt 0.375000 0.250000
vt 0.125000 0.500000
vt 0.625000 0.250000
vt 0.875000 0.500000
vt 0.375000 0.125000
vt 0.125000 0.625000
vt 0.625000 0.125000
vt 0.875000 0.625000
vt 0.375000 0.250000
vt 0.125000 0.500000
vt 0.875000 0.500000
vt 0.625000 0.250000
vt 0.375000 1.000000
vt 0.125000 0.750000
vt 0.625000 1.000000
vt 0.875000 0.750000
vt 0.375000 0.750000
vt 0.625000 0.750000
vt 0.375000 0.875000
vt 0.250000 0.750000
vt 0.750000 0.750000
vt 0.625000 0.875000
vt 0.375000 0.750000
vt 0.625000 0.750000
vt 0.375000 1.000000
vt 0.125000 0.750000
vt 0.375000 0.000000
vt 0.625000 1.000000
vt 0.875000 0.750000
vt 0.625000 0.000000
s 0
f 13/13/1 1/1/1 33/37/1 37/46/1
f 10/10/2 8/8/2 28/30/2 30/33/2
f 6/6/3 12/12/3 46/61/3 44/58/3
f 19/19/4 20/20/4 48/64/4 47/63/4
f 18/18/1 15/15/1 5/5/1 11/11/1
f 17/17/5 14/14/5 2/2/5 12/12/5
f 16/16/6 17/17/6 12/12/6 6/6/6
f 13/13/1 18/18/1 11/11/1 1/1/1
f 12/12/7 2/2/7 42/56/7 46/61/7
f 4/4/8 10/10/8 30/33/8 26/28/8
f 3/3/1 9/9/1 18/18/1 13/13/1
f 8/8/9 10/10/9 17/17/9 16/16/9
f 10/10/10 4/4/10 14/14/10 17/17/10
f 9/9/1 7/7/1 15/15/1 18/18/1
f 5/5/1 15/15/1 23/23/1 19/19/1
f 26/27/11 25/25/11 39/49/11 40/52/11
f 23/23/12 24/24/12 20/20/12 19/19/12
f 21/21/12 22/22/12 24/24/12 23/23/12
f 15/15/1 7/7/1 21/21/1 23/23/1
f 8/8/13 16/16/13 24/24/13 22/22/13
f 16/16/14 6/6/14 20/20/14 24/24/14
f 9/9/1 3/3/1 25/26/1 29/32/1
f 29/31/15 30/34/15 28/30/15 27/29/15
f 25/25/16 26/27/16 30/34/16 29/31/16
f 27/29/17 28/30/17 32/36/17 31/35/17
f 4/4/18 26/28/18 40/51/18 36/44/18
f 7/7/1 9/9/1 29/32/1 27/29/1
f 8/8/19 22/22/19 32/36/19 28/30/19
f 22/22/12 21/21/12 31/35/12 32/36/12
f 21/21/1 7/7/1 27/29/1 31/35/1
f 37/45/20 38/47/20 36/43/20 35/41/20
f 33/38/20 34/40/20 38/47/20 37/45/20
f 35/41/20 36/43/20 40/52/20 39/49/20
f 3/3/1 13/13/1 37/46/1 35/42/1
f 1/1/21 11/11/21 45/60/21 41/54/21
f 2/2/22 14/14/22 38/48/22 34/39/22
f 25/26/1 3/3/1 35/42/1 39/50/1
f 14/14/23 4/4/23 36/44/23 38/48/23
f 44/58/24 43/57/24 47/63/24 48/64/24
f 45/59/25 46/62/25 42/55/25 41/53/25
f 43/57/24 44/58/24 46/62/24 45/59/24
f 41/53/26 42/55/26 50/68/26 49/65/26
f 5/5/21 19/19/21 47/63/21 43/57/21
f 2/2/27 34/39/27 50/69/27 42/56/27
f 20/20/28 6/6/28 44/58/28 48/64/28
f 33/37/21 1/1/21 41/54/21 49/66/21
f 34/40/29 33/38/29 49/67/29 50/70/29
f 11/11/21 5/5/21 43/57/21 45/60/21
